<svg width="22" height="21" viewBox="0 0 22 21" fill="none" xmlns="http://www.w3.org/2000/svg">
<path d="M3.57086 0C4.02568 0 4.41747 0.307883 4.53312 0.739745L4.55615 0.850187L5.03179 3.997L20.512 3.99683C21.1095 3.99683 21.5631 4.51717 21.5038 5.09669L21.485 5.21324L19.4963 14.2159C19.4036 14.6356 19.0559 14.9443 18.6387 14.9928L18.5233 14.9995H5.53377C5.07895 14.9995 4.68715 14.6916 4.57151 14.2598L4.54848 14.1493L2.71483 2H0.581238V0H3.57086ZM5.56394 19C5.56394 20.1046 6.45627 21 7.55702 21C8.65776 21 9.5501 20.1046 9.5501 19C9.5501 17.8954 8.65776 17 7.55702 17C6.45627 17 5.56394 17.8954 5.56394 19ZM14.5328 19C14.5328 20.1046 15.4251 21 16.5259 21C17.6266 21 18.519 20.1046 18.519 19C18.519 17.8954 17.6266 17 16.5259 17C15.4251 17 14.5328 17.8954 14.5328 19ZM5.33374 5.997L6.39107 13H17.7247L19.2713 5.997H5.33374Z" fill="#FBF6EE"/>
</svg>
