<svg width="16" height="21" viewBox="0 0 16 21" fill="none" xmlns="http://www.w3.org/2000/svg">
<path d="M0 21C0 18.8783 0.839938 16.8434 2.33504 15.3431C3.83014 13.8429 5.85793 13 7.97232 13C10.0867 13 12.1145 13.8429 13.6096 15.3431C15.1047 16.8434 15.9446 18.8783 15.9446 21H13.9516C13.9516 19.4087 13.3216 17.8826 12.2003 16.7574C11.079 15.6321 9.55811 15 7.97232 15C6.38653 15 4.86568 15.6321 3.74436 16.7574C2.62303 17.8826 1.99308 19.4087 1.99308 21H0ZM7.97232 12C4.66879 12 1.99308 9.315 1.99308 6C1.99308 2.685 4.66879 0 7.97232 0C11.2758 0 13.9516 2.685 13.9516 6C13.9516 9.315 11.2758 12 7.97232 12ZM7.97232 10C10.1747 10 11.9585 8.21 11.9585 6C11.9585 3.79 10.1747 2 7.97232 2C5.76997 2 3.98616 3.79 3.98616 6C3.98616 8.21 5.76997 10 7.97232 10Z" fill="#FBF6EE"/>
</svg>
