<svg width="20" height="20" viewBox="0 0 20 20" fill="none" xmlns="http://www.w3.org/2000/svg">
<path d="M1.16957 20C0.905276 20 0.651802 19.8946 0.464915 19.7071C0.278027 19.5196 0.173035 19.2652 0.173035 19V1C0.173035 0.734784 0.278027 0.48043 0.464915 0.292893C0.651802 0.105357 0.905276 0 1.16957 0H15.1211C15.3854 0 15.6389 0.105357 15.8258 0.292893C16.0127 0.48043 16.1177 0.734784 16.1177 1V4H14.1246V2H2.16611V18H14.1246V16H16.1177V19C16.1177 19.2652 16.0127 19.5196 15.8258 19.7071C15.6389 19.8946 15.3854 20 15.1211 20H1.16957ZM14.1246 14V11H7.14881V9H14.1246V6L19.1073 10L14.1246 14Z" fill="#FBF6EE"/>
</svg>
