<svg width="25" height="24" viewBox="0 0 25 24" fill="none" xmlns="http://www.w3.org/2000/svg">
<path d="M4.57086 2C5.02568 2 5.41747 2.30788 5.53312 2.73975L5.55615 2.85019L6.03179 5.997L21.512 5.99683C22.1095 5.99683 22.5631 6.51717 22.5038 7.09669L22.485 7.21324L20.4963 16.2159C20.4036 16.6356 20.0559 16.9443 19.6387 16.9928L19.5233 16.9995H6.53377C6.07895 16.9995 5.68715 16.6916 5.57151 16.2598L5.54848 16.1493L3.71483 4H1.58124V2H4.57086ZM6.56394 21C6.56394 22.1046 7.45627 23 8.55702 23C9.65776 23 10.5501 22.1046 10.5501 21C10.5501 19.8954 9.65776 19 8.55702 19C7.45627 19 6.56394 19.8954 6.56394 21ZM15.5328 21C15.5328 22.1046 16.4251 23 17.5259 23C18.6266 23 19.519 22.1046 19.519 21C19.519 19.8954 18.6266 19 17.5259 19C16.4251 19 15.5328 19.8954 15.5328 21ZM6.33374 7.997L7.39107 15H18.7247L20.2713 7.997H6.33374Z" fill="#FBF6EE"/>
</svg>
