<svg width="21" height="18" viewBox="0 0 21 18" fill="none" xmlns="http://www.w3.org/2000/svg">
<path fill-rule="evenodd" clip-rule="evenodd" d="M12.4789 0.899385C10.6488 1.63164 9.43568 3.3892 9.39999 5.36002L9.40099 5.36102C9.33638 5.35214 9.27542 5.34448 9.21611 5.33703C8.78794 5.28327 8.44509 5.24022 7.42799 4.82302C5.68799 4.10902 3.97099 2.76302 2.27799 0.786018C-1.21958 9.20656 3.8353 12.499 5.4025 13.5198C5.45153 13.5517 5.49715 13.5814 5.53899 13.609C3.90899 14.802 1.08899 15.105 0.394989 15.159C1.75699 16.581 6.50899 17.652 9.77699 17C14.543 16.049 19.24 12.333 19.24 4.69102C19.954 3.71202 20.119 3.00002 20.454 1.36002C19.3112 2.05263 18.702 2.03181 18.1119 2.01164C18.0033 2.00793 17.8954 2.00424 17.785 2.00502C16.3997 0.602772 14.309 0.167134 12.4789 0.899385ZM11.4 5.39702C11.4289 3.81613 12.7188 2.54975 14.3 2.55002C16.228 2.55002 17.24 4.21302 17.24 4.69102C17.24 10.547 14.103 14.097 9.38499 15.039C8.63899 15.187 7.73999 15.229 6.79299 15.17L8.38499 14.007C8.54589 13.8898 8.6382 13.7004 8.63138 13.5015C8.62457 13.3026 8.51953 13.1199 8.35099 13.014L6.60399 11.916C3.79099 10.147 2.62299 7.85402 3.22099 4.54402C5.10899 6.11702 7.07699 7.06302 9.13099 7.34302L10.692 7.55502C10.8615 7.57786 11.0328 7.52724 11.1626 7.4159C11.2925 7.30455 11.3687 7.14306 11.372 6.97202L11.4 5.39702Z" fill="#FBF6EE"/>
</svg>
